<mxfile host="Electron" agent="Mozilla/5.0 (Windows NT 10.0; Win64; x64) AppleWebKit/537.36 (KHTML, like Gecko) draw.io/26.0.9 Chrome/128.0.6613.186 Electron/32.2.5 Safari/537.36" version="26.0.9">
  <diagram name="Страница — 1" id="Xj42LZrAtkX_y3P6HvNs">
    <mxGraphModel dx="2327" dy="899" grid="1" gridSize="10" guides="1" tooltips="1" connect="1" arrows="1" fold="1" page="1" pageScale="1" pageWidth="827" pageHeight="1169" math="0" shadow="0">
      <root>
        <mxCell id="0" />
        <mxCell id="1" parent="0" />
        <mxCell id="RLHyZXYZ22W25Kmp-MOm-1" value="" style="endArrow=block;endSize=10;endFill=0;shadow=0;strokeWidth=1;rounded=0;curved=0;edgeStyle=elbowEdgeStyle;elbow=vertical;exitX=0.5;exitY=0;exitDx=0;exitDy=0;entryX=0.5;entryY=1;entryDx=0;entryDy=0;" edge="1" parent="1" source="RLHyZXYZ22W25Kmp-MOm-10" target="RLHyZXYZ22W25Kmp-MOm-22">
          <mxGeometry width="160" relative="1" as="geometry">
            <mxPoint x="180" y="360" as="sourcePoint" />
            <mxPoint x="472.00000000000045" y="14.70199999999977" as="targetPoint" />
          </mxGeometry>
        </mxCell>
        <mxCell id="RLHyZXYZ22W25Kmp-MOm-2" value="" style="endArrow=block;endSize=10;endFill=0;shadow=0;strokeWidth=1;rounded=0;curved=0;edgeStyle=elbowEdgeStyle;elbow=vertical;entryX=0.5;entryY=1;entryDx=0;entryDy=0;exitX=0.5;exitY=0;exitDx=0;exitDy=0;" edge="1" parent="1" source="RLHyZXYZ22W25Kmp-MOm-30" target="RLHyZXYZ22W25Kmp-MOm-22">
          <mxGeometry width="160" relative="1" as="geometry">
            <mxPoint x="670" y="310" as="sourcePoint" />
            <mxPoint x="472.00000000000045" y="14.753999999999905" as="targetPoint" />
          </mxGeometry>
        </mxCell>
        <mxCell id="RLHyZXYZ22W25Kmp-MOm-3" value="Globe" style="swimlane;fontStyle=1;align=center;verticalAlign=top;childLayout=stackLayout;horizontal=1;startSize=26;horizontalStack=0;resizeParent=1;resizeParentMax=0;resizeLast=0;collapsible=1;marginBottom=0;whiteSpace=wrap;html=1;" vertex="1" parent="1">
          <mxGeometry x="570" y="540" width="200" height="58" as="geometry" />
        </mxCell>
        <mxCell id="RLHyZXYZ22W25Kmp-MOm-4" value="- radius: Float&lt;div&gt;&lt;br&gt;&lt;/div&gt;" style="text;strokeColor=none;fillColor=none;align=left;verticalAlign=top;spacingLeft=4;spacingRight=4;overflow=hidden;rotatable=0;points=[[0,0.5],[1,0.5]];portConstraint=eastwest;whiteSpace=wrap;html=1;" vertex="1" parent="RLHyZXYZ22W25Kmp-MOm-3">
          <mxGeometry y="26" width="200" height="24" as="geometry" />
        </mxCell>
        <mxCell id="RLHyZXYZ22W25Kmp-MOm-5" value="" style="line;strokeWidth=1;fillColor=none;align=left;verticalAlign=middle;spacingTop=-1;spacingLeft=3;spacingRight=3;rotatable=0;labelPosition=right;points=[];portConstraint=eastwest;strokeColor=inherit;" vertex="1" parent="RLHyZXYZ22W25Kmp-MOm-3">
          <mxGeometry y="50" width="200" height="8" as="geometry" />
        </mxCell>
        <mxCell id="RLHyZXYZ22W25Kmp-MOm-7" value="" style="endArrow=block;endSize=10;endFill=0;shadow=0;strokeWidth=1;rounded=0;curved=0;edgeStyle=elbowEdgeStyle;elbow=vertical;entryX=0.5;entryY=1;entryDx=0;entryDy=0;exitX=0.5;exitY=0;exitDx=0;exitDy=0;" edge="1" parent="1" source="RLHyZXYZ22W25Kmp-MOm-26" target="RLHyZXYZ22W25Kmp-MOm-10">
          <mxGeometry width="160" relative="1" as="geometry">
            <mxPoint x="10" y="520" as="sourcePoint" />
            <mxPoint x="180" y="430" as="targetPoint" />
          </mxGeometry>
        </mxCell>
        <mxCell id="RLHyZXYZ22W25Kmp-MOm-8" value="" style="endArrow=block;endSize=10;endFill=0;shadow=0;strokeWidth=1;rounded=0;curved=0;edgeStyle=elbowEdgeStyle;elbow=vertical;exitX=0.5;exitY=0;exitDx=0;exitDy=0;entryX=0.5;entryY=1;entryDx=0;entryDy=0;" edge="1" parent="1" source="RLHyZXYZ22W25Kmp-MOm-14" target="RLHyZXYZ22W25Kmp-MOm-10">
          <mxGeometry width="160" relative="1" as="geometry">
            <mxPoint x="420" y="530" as="sourcePoint" />
            <mxPoint x="170" y="430" as="targetPoint" />
          </mxGeometry>
        </mxCell>
        <mxCell id="RLHyZXYZ22W25Kmp-MOm-9" value="" style="endArrow=block;endSize=10;endFill=0;shadow=0;strokeWidth=1;rounded=0;curved=0;edgeStyle=elbowEdgeStyle;elbow=vertical;exitX=0.5;exitY=0;exitDx=0;exitDy=0;entryX=0.5;entryY=1;entryDx=0;entryDy=0;" edge="1" parent="1" source="RLHyZXYZ22W25Kmp-MOm-18" target="RLHyZXYZ22W25Kmp-MOm-10">
          <mxGeometry width="160" relative="1" as="geometry">
            <mxPoint x="180" y="530" as="sourcePoint" />
            <mxPoint x="160" y="430" as="targetPoint" />
          </mxGeometry>
        </mxCell>
        <mxCell id="RLHyZXYZ22W25Kmp-MOm-10" value="&lt;span style=&quot;font-style: italic; text-wrap: nowrap;&quot;&gt;2DFigure&lt;/span&gt;" style="swimlane;fontStyle=1;align=center;verticalAlign=top;childLayout=stackLayout;horizontal=1;startSize=26;horizontalStack=0;resizeParent=1;resizeParentMax=0;resizeLast=0;collapsible=1;marginBottom=0;whiteSpace=wrap;html=1;" vertex="1" parent="1">
          <mxGeometry x="90" y="330" width="300" height="100" as="geometry" />
        </mxCell>
        <mxCell id="RLHyZXYZ22W25Kmp-MOm-11" value="&lt;div&gt;&lt;br&gt;&lt;/div&gt;&lt;div&gt;&lt;br&gt;&lt;/div&gt;&lt;br&gt;&lt;div&gt;&lt;br&gt;&lt;/div&gt;" style="text;strokeColor=none;fillColor=none;align=left;verticalAlign=top;spacingLeft=4;spacingRight=4;overflow=hidden;rotatable=0;points=[[0,0.5],[1,0.5]];portConstraint=eastwest;whiteSpace=wrap;html=1;" vertex="1" parent="RLHyZXYZ22W25Kmp-MOm-10">
          <mxGeometry y="26" width="300" height="4" as="geometry" />
        </mxCell>
        <mxCell id="RLHyZXYZ22W25Kmp-MOm-12" value="" style="line;strokeWidth=1;fillColor=none;align=left;verticalAlign=middle;spacingTop=-1;spacingLeft=3;spacingRight=3;rotatable=0;labelPosition=right;points=[];portConstraint=eastwest;strokeColor=inherit;" vertex="1" parent="RLHyZXYZ22W25Kmp-MOm-10">
          <mxGeometry y="30" width="300" height="8" as="geometry" />
        </mxCell>
        <mxCell id="RLHyZXYZ22W25Kmp-MOm-13" value="&lt;div&gt;#&amp;nbsp;&lt;span style=&quot;background-color: transparent; color: light-dark(rgb(0, 0, 0), rgb(255, 255, 255));&quot;&gt;square(): -&amp;gt; Float&lt;/span&gt;&lt;/div&gt;&lt;div&gt;# perimetr(): -&amp;gt; Float&lt;/div&gt;" style="text;strokeColor=none;fillColor=none;align=left;verticalAlign=top;spacingLeft=4;spacingRight=4;overflow=hidden;rotatable=0;points=[[0,0.5],[1,0.5]];portConstraint=eastwest;whiteSpace=wrap;html=1;" vertex="1" parent="RLHyZXYZ22W25Kmp-MOm-10">
          <mxGeometry y="38" width="300" height="62" as="geometry" />
        </mxCell>
        <mxCell id="RLHyZXYZ22W25Kmp-MOm-14" value="Rectangle" style="swimlane;fontStyle=1;align=center;verticalAlign=top;childLayout=stackLayout;horizontal=1;startSize=26;horizontalStack=0;resizeParent=1;resizeParentMax=0;resizeLast=0;collapsible=1;marginBottom=0;whiteSpace=wrap;html=1;" vertex="1" parent="1">
          <mxGeometry x="360" y="542" width="180" height="140" as="geometry" />
        </mxCell>
        <mxCell id="RLHyZXYZ22W25Kmp-MOm-15" value="&lt;div&gt;&lt;span style=&quot;background-color: transparent; color: light-dark(rgb(0, 0, 0), rgb(255, 255, 255));&quot;&gt;- side_a: Float&lt;/span&gt;&lt;br&gt;&lt;/div&gt;&lt;div&gt;&lt;span style=&quot;background-color: transparent; color: light-dark(rgb(0, 0, 0), rgb(255, 255, 255));&quot;&gt;- side_b: Float&lt;/span&gt;&lt;/div&gt;" style="text;strokeColor=none;fillColor=none;align=left;verticalAlign=top;spacingLeft=4;spacingRight=4;overflow=hidden;rotatable=0;points=[[0,0.5],[1,0.5]];portConstraint=eastwest;whiteSpace=wrap;html=1;" vertex="1" parent="RLHyZXYZ22W25Kmp-MOm-14">
          <mxGeometry y="26" width="180" height="34" as="geometry" />
        </mxCell>
        <mxCell id="RLHyZXYZ22W25Kmp-MOm-16" value="" style="line;strokeWidth=1;fillColor=none;align=left;verticalAlign=middle;spacingTop=-1;spacingLeft=3;spacingRight=3;rotatable=0;labelPosition=right;points=[];portConstraint=eastwest;strokeColor=inherit;" vertex="1" parent="RLHyZXYZ22W25Kmp-MOm-14">
          <mxGeometry y="60" width="180" height="8" as="geometry" />
        </mxCell>
        <mxCell id="RLHyZXYZ22W25Kmp-MOm-17" value="- is_square(): -&amp;gt; Bool&lt;div&gt;&lt;br&gt;&lt;/div&gt;" style="text;strokeColor=none;fillColor=none;align=left;verticalAlign=top;spacingLeft=4;spacingRight=4;overflow=hidden;rotatable=0;points=[[0,0.5],[1,0.5]];portConstraint=eastwest;whiteSpace=wrap;html=1;" vertex="1" parent="RLHyZXYZ22W25Kmp-MOm-14">
          <mxGeometry y="68" width="180" height="72" as="geometry" />
        </mxCell>
        <mxCell id="RLHyZXYZ22W25Kmp-MOm-18" value="Triangle" style="swimlane;fontStyle=1;align=center;verticalAlign=top;childLayout=stackLayout;horizontal=1;startSize=26;horizontalStack=0;resizeParent=1;resizeParentMax=0;resizeLast=0;collapsible=1;marginBottom=0;whiteSpace=wrap;html=1;" vertex="1" parent="1">
          <mxGeometry x="140" y="542" width="200" height="140" as="geometry" />
        </mxCell>
        <mxCell id="RLHyZXYZ22W25Kmp-MOm-19" value="&lt;div&gt;&lt;span style=&quot;background-color: transparent; color: light-dark(rgb(0, 0, 0), rgb(255, 255, 255));&quot;&gt;- side_a: Float&lt;/span&gt;&lt;br&gt;&lt;/div&gt;&lt;div&gt;&lt;span style=&quot;background-color: transparent; color: light-dark(rgb(0, 0, 0), rgb(255, 255, 255));&quot;&gt;- side_b: Float&lt;/span&gt;&lt;/div&gt;&lt;div&gt;- side_c: Float&lt;/div&gt;" style="text;strokeColor=none;fillColor=none;align=left;verticalAlign=top;spacingLeft=4;spacingRight=4;overflow=hidden;rotatable=0;points=[[0,0.5],[1,0.5]];portConstraint=eastwest;whiteSpace=wrap;html=1;" vertex="1" parent="RLHyZXYZ22W25Kmp-MOm-18">
          <mxGeometry y="26" width="200" height="54" as="geometry" />
        </mxCell>
        <mxCell id="RLHyZXYZ22W25Kmp-MOm-20" value="" style="line;strokeWidth=1;fillColor=none;align=left;verticalAlign=middle;spacingTop=-1;spacingLeft=3;spacingRight=3;rotatable=0;labelPosition=right;points=[];portConstraint=eastwest;strokeColor=inherit;" vertex="1" parent="RLHyZXYZ22W25Kmp-MOm-18">
          <mxGeometry y="80" width="200" height="8" as="geometry" />
        </mxCell>
        <mxCell id="RLHyZXYZ22W25Kmp-MOm-21" value="- is_&lt;span style=&quot;white-space-collapse: preserve;&quot; data-src-align=&quot;0:14&quot; class=&quot;EzKURWReUAB5oZgtQNkl&quot;&gt;isosceles&lt;/span&gt;(): -&amp;gt; Bool&lt;div&gt;- is_&lt;span style=&quot;white-space-collapse: preserve;&quot; data-src-align=&quot;0:14&quot; class=&quot;EzKURWReUAB5oZgtQNkl&quot;&gt;equilateral&lt;/span&gt;(): -&amp;gt; Bool&lt;/div&gt;&lt;div&gt;- is_scalene(): -&amp;gt; Bool&lt;/div&gt;" style="text;strokeColor=none;fillColor=none;align=left;verticalAlign=top;spacingLeft=4;spacingRight=4;overflow=hidden;rotatable=0;points=[[0,0.5],[1,0.5]];portConstraint=eastwest;whiteSpace=wrap;html=1;" vertex="1" parent="RLHyZXYZ22W25Kmp-MOm-18">
          <mxGeometry y="88" width="200" height="52" as="geometry" />
        </mxCell>
        <mxCell id="RLHyZXYZ22W25Kmp-MOm-22" value="&lt;span style=&quot;font-style: italic; text-wrap: nowrap;&quot;&gt;Figure&lt;/span&gt;" style="swimlane;fontStyle=1;align=center;verticalAlign=top;childLayout=stackLayout;horizontal=1;startSize=26;horizontalStack=0;resizeParent=1;resizeParentMax=0;resizeLast=0;collapsible=1;marginBottom=0;whiteSpace=wrap;html=1;" vertex="1" parent="1">
          <mxGeometry x="390" y="160" width="250" height="58" as="geometry" />
        </mxCell>
        <mxCell id="RLHyZXYZ22W25Kmp-MOm-23" value="# name: String" style="text;strokeColor=none;fillColor=none;align=left;verticalAlign=top;spacingLeft=4;spacingRight=4;overflow=hidden;rotatable=0;points=[[0,0.5],[1,0.5]];portConstraint=eastwest;whiteSpace=wrap;html=1;" vertex="1" parent="RLHyZXYZ22W25Kmp-MOm-22">
          <mxGeometry y="26" width="250" height="24" as="geometry" />
        </mxCell>
        <mxCell id="RLHyZXYZ22W25Kmp-MOm-24" value="" style="line;strokeWidth=1;fillColor=none;align=left;verticalAlign=middle;spacingTop=-1;spacingLeft=3;spacingRight=3;rotatable=0;labelPosition=right;points=[];portConstraint=eastwest;strokeColor=inherit;" vertex="1" parent="RLHyZXYZ22W25Kmp-MOm-22">
          <mxGeometry y="50" width="250" height="8" as="geometry" />
        </mxCell>
        <mxCell id="RLHyZXYZ22W25Kmp-MOm-26" value="Circle" style="swimlane;fontStyle=1;align=center;verticalAlign=top;childLayout=stackLayout;horizontal=1;startSize=26;horizontalStack=0;resizeParent=1;resizeParentMax=0;resizeLast=0;collapsible=1;marginBottom=0;whiteSpace=wrap;html=1;" vertex="1" parent="1">
          <mxGeometry x="-90" y="542" width="200" height="140" as="geometry" />
        </mxCell>
        <mxCell id="RLHyZXYZ22W25Kmp-MOm-27" value="&lt;div&gt;&lt;span style=&quot;background-color: transparent; color: light-dark(rgb(0, 0, 0), rgb(255, 255, 255));&quot;&gt;- radius: Float&lt;/span&gt;&lt;/div&gt;" style="text;strokeColor=none;fillColor=none;align=left;verticalAlign=top;spacingLeft=4;spacingRight=4;overflow=hidden;rotatable=0;points=[[0,0.5],[1,0.5]];portConstraint=eastwest;whiteSpace=wrap;html=1;" vertex="1" parent="RLHyZXYZ22W25Kmp-MOm-26">
          <mxGeometry y="26" width="200" height="44" as="geometry" />
        </mxCell>
        <mxCell id="RLHyZXYZ22W25Kmp-MOm-28" value="" style="line;strokeWidth=1;fillColor=none;align=left;verticalAlign=middle;spacingTop=-1;spacingLeft=3;spacingRight=3;rotatable=0;labelPosition=right;points=[];portConstraint=eastwest;strokeColor=inherit;" vertex="1" parent="RLHyZXYZ22W25Kmp-MOm-26">
          <mxGeometry y="70" width="200" height="8" as="geometry" />
        </mxCell>
        <mxCell id="RLHyZXYZ22W25Kmp-MOm-29" value="-&amp;nbsp;&lt;span style=&quot;white-space-collapse: preserve;&quot; data-src-align=&quot;6:10&quot; class=&quot;EzKURWReUAB5oZgtQNkl&quot;&gt;circumference_&lt;/span&gt;&lt;span style=&quot;white-space-collapse: preserve;&quot; data-src-align=&quot;0:5&quot; class=&quot;EzKURWReUAB5oZgtQNkl&quot;&gt;length&lt;/span&gt;(): -&amp;gt; Float" style="text;strokeColor=none;fillColor=none;align=left;verticalAlign=top;spacingLeft=4;spacingRight=4;overflow=hidden;rotatable=0;points=[[0,0.5],[1,0.5]];portConstraint=eastwest;whiteSpace=wrap;html=1;" vertex="1" parent="RLHyZXYZ22W25Kmp-MOm-26">
          <mxGeometry y="78" width="200" height="62" as="geometry" />
        </mxCell>
        <mxCell id="RLHyZXYZ22W25Kmp-MOm-30" value="&lt;span style=&quot;font-style: italic; text-wrap: nowrap;&quot;&gt;3DFigure&lt;/span&gt;" style="swimlane;fontStyle=1;align=center;verticalAlign=top;childLayout=stackLayout;horizontal=1;startSize=26;horizontalStack=0;resizeParent=1;resizeParentMax=0;resizeLast=0;collapsible=1;marginBottom=0;whiteSpace=wrap;html=1;" vertex="1" parent="1">
          <mxGeometry x="680" y="330" width="200" height="86" as="geometry" />
        </mxCell>
        <mxCell id="RLHyZXYZ22W25Kmp-MOm-32" value="" style="line;strokeWidth=1;fillColor=none;align=left;verticalAlign=middle;spacingTop=-1;spacingLeft=3;spacingRight=3;rotatable=0;labelPosition=right;points=[];portConstraint=eastwest;strokeColor=inherit;" vertex="1" parent="RLHyZXYZ22W25Kmp-MOm-30">
          <mxGeometry y="26" width="200" height="8" as="geometry" />
        </mxCell>
        <mxCell id="RLHyZXYZ22W25Kmp-MOm-33" value="# volume(): -&amp;gt; Float&lt;div&gt;# square(): -&amp;gt; Float&lt;/div&gt;&lt;div&gt;# perimetr(): -&amp;gt; Float&lt;/div&gt;" style="text;strokeColor=none;fillColor=none;align=left;verticalAlign=top;spacingLeft=4;spacingRight=4;overflow=hidden;rotatable=0;points=[[0,0.5],[1,0.5]];portConstraint=eastwest;whiteSpace=wrap;html=1;" vertex="1" parent="RLHyZXYZ22W25Kmp-MOm-30">
          <mxGeometry y="34" width="200" height="52" as="geometry" />
        </mxCell>
        <mxCell id="RLHyZXYZ22W25Kmp-MOm-34" value="&lt;span style=&quot;text-wrap: nowrap;&quot;&gt;Cube&lt;/span&gt;" style="swimlane;fontStyle=1;align=center;verticalAlign=top;childLayout=stackLayout;horizontal=1;startSize=26;horizontalStack=0;resizeParent=1;resizeParentMax=0;resizeLast=0;collapsible=1;marginBottom=0;whiteSpace=wrap;html=1;" vertex="1" parent="1">
          <mxGeometry x="790" y="540" width="200" height="80" as="geometry" />
        </mxCell>
        <mxCell id="RLHyZXYZ22W25Kmp-MOm-35" value="- side: Float" style="text;strokeColor=none;fillColor=none;align=left;verticalAlign=top;spacingLeft=4;spacingRight=4;overflow=hidden;rotatable=0;points=[[0,0.5],[1,0.5]];portConstraint=eastwest;whiteSpace=wrap;html=1;" vertex="1" parent="RLHyZXYZ22W25Kmp-MOm-34">
          <mxGeometry y="26" width="200" height="24" as="geometry" />
        </mxCell>
        <mxCell id="RLHyZXYZ22W25Kmp-MOm-36" value="" style="line;strokeWidth=1;fillColor=none;align=left;verticalAlign=middle;spacingTop=-1;spacingLeft=3;spacingRight=3;rotatable=0;labelPosition=right;points=[];portConstraint=eastwest;strokeColor=inherit;" vertex="1" parent="RLHyZXYZ22W25Kmp-MOm-34">
          <mxGeometry y="50" width="200" height="8" as="geometry" />
        </mxCell>
        <mxCell id="RLHyZXYZ22W25Kmp-MOm-37" value="- diagonal(): -&amp;gt; Float" style="text;strokeColor=none;fillColor=none;align=left;verticalAlign=top;spacingLeft=4;spacingRight=4;overflow=hidden;rotatable=0;points=[[0,0.5],[1,0.5]];portConstraint=eastwest;whiteSpace=wrap;html=1;" vertex="1" parent="RLHyZXYZ22W25Kmp-MOm-34">
          <mxGeometry y="58" width="200" height="22" as="geometry" />
        </mxCell>
        <mxCell id="RLHyZXYZ22W25Kmp-MOm-38" value="" style="endArrow=block;endSize=10;endFill=0;shadow=0;strokeWidth=1;rounded=0;curved=0;edgeStyle=elbowEdgeStyle;elbow=vertical;exitX=0.5;exitY=0;exitDx=0;exitDy=0;entryX=0.5;entryY=1;entryDx=0;entryDy=0;entryPerimeter=0;" edge="1" parent="1" source="RLHyZXYZ22W25Kmp-MOm-34" target="RLHyZXYZ22W25Kmp-MOm-33">
          <mxGeometry width="160" relative="1" as="geometry">
            <mxPoint x="860" y="540" as="sourcePoint" />
            <mxPoint x="780" y="480" as="targetPoint" />
          </mxGeometry>
        </mxCell>
        <mxCell id="RLHyZXYZ22W25Kmp-MOm-39" value="" style="endArrow=block;endSize=10;endFill=0;shadow=0;strokeWidth=1;rounded=0;curved=0;edgeStyle=elbowEdgeStyle;elbow=vertical;exitX=0.5;exitY=0;exitDx=0;exitDy=0;" edge="1" parent="1" source="RLHyZXYZ22W25Kmp-MOm-3" target="RLHyZXYZ22W25Kmp-MOm-33">
          <mxGeometry width="160" relative="1" as="geometry">
            <mxPoint x="700" y="540" as="sourcePoint" />
            <mxPoint x="800" y="460" as="targetPoint" />
          </mxGeometry>
        </mxCell>
      </root>
    </mxGraphModel>
  </diagram>
</mxfile>
